<svg width="261" height="55" viewBox="0 0 261 55" fill="none" xmlns="http://www.w3.org/2000/svg">
<path d="M34.999 54L23.479 37.8C22.183 37.944 20.839 38.016 19.447 38.016H5.911V54H0.583001V3.6H19.447C25.879 3.6 30.919 5.136 34.567 8.208C38.215 11.28 40.039 15.504 40.039 20.88C40.039 24.816 39.031 28.152 37.015 30.888C35.047 33.576 32.215 35.52 28.519 36.72L40.831 54H34.999ZM19.303 33.48C24.295 33.48 28.111 32.376 30.751 30.168C33.391 27.96 34.711 24.864 34.711 20.88C34.711 16.8 33.391 13.68 30.751 11.52C28.111 9.312 24.295 8.208 19.303 8.208H5.911V33.48H19.303ZM64.4307 15.84C69.3747 15.84 73.1667 17.088 75.8067 19.584C78.4467 22.032 79.7667 25.68 79.7667 30.528V54H74.8707V48.096C73.7187 50.064 72.0147 51.6 69.7587 52.704C67.5507 53.808 64.9107 54.36 61.8387 54.36C57.6147 54.36 54.2547 53.352 51.7587 51.336C49.2627 49.32 48.0147 46.656 48.0147 43.344C48.0147 40.128 49.1667 37.536 51.4707 35.568C53.8227 33.6 57.5427 32.616 62.6307 32.616H74.6547V30.312C74.6547 27.048 73.7427 24.576 71.9187 22.896C70.0947 21.168 67.4307 20.304 63.9267 20.304C61.5267 20.304 59.2227 20.712 57.0147 21.528C54.8067 22.296 52.9107 23.376 51.3267 24.768L49.0227 20.952C50.9427 19.32 53.2467 18.072 55.9347 17.208C58.6227 16.296 61.4547 15.84 64.4307 15.84ZM62.6307 50.328C65.5107 50.328 67.9827 49.68 70.0467 48.384C72.1107 47.04 73.6467 45.12 74.6547 42.624V36.432H62.7747C56.2947 36.432 53.0547 38.688 53.0547 43.2C53.0547 45.408 53.8947 47.16 55.5747 48.456C57.2547 49.704 59.6067 50.328 62.6307 50.328ZM106.179 4.536C103.971 4.536 102.291 5.136 101.139 6.336C100.035 7.536 99.4834 9.312 99.4834 11.664V16.128H111.147V20.448H99.6274V54H94.5154V20.448H87.7474V16.128H94.5154V11.448C94.5154 7.992 95.4994 5.256 97.4674 3.24C99.4834 1.224 102.315 0.215997 105.963 0.215997C107.403 0.215997 108.795 0.431997 110.139 0.863997C111.483 1.248 112.611 1.824 113.523 2.592L111.795 6.408C110.307 5.16 108.435 4.536 106.179 4.536ZM123.819 16.128H128.931V54H123.819V16.128ZM126.411 7.848C125.355 7.848 124.467 7.488 123.747 6.768C123.027 6.048 122.667 5.184 122.667 4.176C122.667 3.216 123.027 2.376 123.747 1.656C124.467 0.935997 125.355 0.575997 126.411 0.575997C127.467 0.575997 128.355 0.935997 129.075 1.656C129.795 2.328 130.155 3.144 130.155 4.104C130.155 5.16 129.795 6.048 129.075 6.768C128.355 7.488 127.467 7.848 126.411 7.848ZM157.262 34.992L148.334 43.2V54H143.222V0.575997H148.334V36.792L170.942 16.128H177.278L161.078 31.608L178.79 54H172.526L157.262 34.992ZM222.012 30.312L211.716 40.752V54H206.388V3.6H211.716V34.056L241.308 3.6H247.428L225.612 26.424L248.94 54H242.604L222.012 30.312ZM256.999 54.36C255.943 54.36 255.031 53.976 254.263 53.208C253.543 52.44 253.183 51.504 253.183 50.4C253.183 49.296 253.543 48.384 254.263 47.664C255.031 46.896 255.943 46.512 256.999 46.512C258.055 46.512 258.967 46.896 259.735 47.664C260.503 48.384 260.887 49.296 260.887 50.4C260.887 51.504 260.503 52.44 259.735 53.208C258.967 53.976 258.055 54.36 256.999 54.36Z" fill="black"/>
</svg>
